<svg data-v-0dd9719b="" version="1.0" xmlns="http://www.w3.org/2000/svg" xmlns:xlink="http://www.w3.org/1999/xlink" width="100%" height="100%" viewBox="0 0 340.000000 250.000000" preserveAspectRatio="xMidYMid meet" color-interpolation-filters="sRGB" style="margin: auto;"><g data-v-0dd9719b="" fill="#0bbf64" class="basesvg" transform="translate(83.20708465576172,77.12025451660156)"><g data-gra="path-name" fill-rule="" class="tp-name"><g transform="scale(1)"><g><path d="M25.6-17.3L17.48-17.3Q16.48-17.3 15.92-18.09 15.36-18.89 15.36-20.24L15.36-20.24Q15.36-23.24 17.83-23.24L17.83-23.24 24.07-23.24Q26.24-23.24 27.16-24.48 28.07-25.71 28.07-27.19L28.07-27.19 28.07-36.84Q28.07-38.31 27.16-39.54 26.24-40.78 24.07-40.78L24.07-40.78 11.71-40.78 11.71-2.35Q11.71 0.47 8.18 0.47L8.18 0.47Q4.77 0.47 4.77-2.35L4.77-2.35 4.77-43.19Q4.77-45.31 5.83-46.02 6.88-46.72 8.41-46.72L8.41-46.72 25.6-46.72Q27.07-46.72 28.72-46.07 30.36-45.43 31.89-44.43L31.89-44.43 31.83-44.43Q33.36-43.31 34.19-41.51 35.01-39.72 35.01-37.37L35.01-37.37 35.01-26.71Q35.01-21.95 31.83-19.59L31.83-19.59Q30.3-18.48 28.72-17.89 27.13-17.3 25.6-17.3L25.6-17.3ZM71.73-0.71L60.61-19.36 56.08-19.36Q55.08-19.36 54.52-20.15 53.96-20.95 53.96-22.3L53.96-22.3Q53.96-25.3 56.43-25.3L56.43-25.3 63.31-25.3Q65.49-25.3 66.37-26.54 67.26-27.77 67.26-29.24L67.26-29.24 67.26-36.84Q67.26-38.31 66.37-39.54 65.49-40.78 63.31-40.78L63.31-40.78 50.9-40.78 50.9-2.41Q50.9 0.41 47.43 0.41L47.43 0.41Q43.96 0.41 43.96-2.41L43.96-2.41 43.96-43.19Q43.96-45.31 45.04-46.02 46.13-46.72 47.66-46.72L47.66-46.72 64.79-46.72Q66.32-46.72 67.96-46.07 69.61-45.43 71.14-44.43L71.14-44.43 71.08-44.43Q72.61-43.31 73.44-41.51 74.26-39.72 74.26-37.37L74.26-37.37 74.26-28.77Q74.26-24.01 71.08-21.65L71.08-21.65Q70.43-21.18 69.7-20.77 68.96-20.36 68.2-19.95L68.2-19.95 77.61-4.41Q77.79-4.12 77.97-3.65 78.14-3.18 78.14-2.88L78.14-2.88Q78.14-1.47 76.14-0.18L76.14-0.18 76.14-0.24Q74.79 0.59 73.85 0.59L73.85 0.59Q72.49 0.59 71.67-0.76L71.67-0.76 71.73-0.71ZM90.85-44.19L90.85-2.47Q90.85 0.35 87.32 0.35L87.32 0.35Q83.85 0.35 83.85-2.47L83.85-2.47 83.85-44.19Q83.85-47.02 87.32-47.02L87.32-47.02Q90.85-47.02 90.85-44.19L90.85-44.19ZM136.34-47.02L136.34-47.02Q138.22-47.02 140.46-46.13L140.46-46.13Q142.52-45.31 142.52-43.01L142.52-43.01 142.52-2.47Q142.52 0.35 139.05 0.35L139.05 0.35Q135.57 0.35 135.57-2.47L135.57-2.47 135.57-32.72 133.87-32.89 131.51-25.24 124.45-1.71Q123.81 0.35 121.27 0.29L121.27 0.29Q120.16 0.24 119.33-0.29 118.51-0.82 118.22-1.82L118.22-1.82 113.98-15.53Q112.68-19.59 111.39-23.8 110.09-28.01 108.56-33.13L108.56-33.13 106.86-32.89 106.86-2.47Q106.86 0.35 103.39 0.35L103.39 0.35Q99.92 0.35 99.92-2.47L99.92-2.47 99.92-43.01Q99.92-45.25 101.97-46.13L101.97-46.13Q104.15-47.02 106.15-46.96L106.15-46.96Q107.03-46.96 107.98-46.72 108.92-46.49 109.74-46.04 110.57-45.6 111.21-44.93 111.86-44.25 112.21-43.37L112.21-43.37 121.45-11.89Q122.45-15.36 123.57-19.42 124.69-23.48 125.86-27.66 127.04-31.83 128.19-35.92 129.34-40.01 130.34-43.54L130.34-43.54Q130.69-44.37 131.34-45.01 131.98-45.66 132.81-46.1 133.63-46.54 134.54-46.78 135.46-47.02 136.34-47.02ZM176.12 0.06L154.58 0.06Q152.4 0.06 151.64-1.06 150.87-2.18 150.87-3.53L150.87-3.53 150.87-43.19Q150.87-44.54 151.64-45.63 152.4-46.72 154.58-46.72L154.58-46.72 175.06-46.72Q177.23-46.72 177.35-43.78L177.35-43.78Q177.47-40.78 175.06-40.78L175.06-40.78 157.82-40.78 157.82-5.88 176.12-5.88Q178.29-5.88 178.35-3L178.35-3Q178.47 0.06 176.12 0.06L176.12 0.06ZM172.88-24.3L172.88-24.3Q172.88-22.24 171.44-20.83 170-19.42 167.94-19.42L167.94-19.42Q165.94-19.42 164.52-20.83 163.11-22.24 163.11-24.3L163.11-24.3Q163.11-26.36 164.52-27.77 165.94-29.19 167.94-29.19L167.94-29.19Q170-29.19 171.44-27.77 172.88-26.36 172.88-24.3Z" transform="translate(-4.769999980926514, 47.02000045776367)"></path></g> <!----> <!----> <!----> <!----> <!----> <!----> <g data-gra="path-name-1" fill="#0bbf64" transform="translate(0,50.61000061035156)"><g transform="scale(0.99822)"><path d="M24.38-16.48L16.64-16.48Q15.69-16.48 15.16-17.23 14.63-17.99 14.63-19.28L14.63-19.28Q14.63-22.14 16.98-22.14L16.98-22.14 22.92-22.14Q24.99-22.14 25.86-23.31 26.73-24.49 26.73-25.89L26.73-25.89 26.73-35.08Q26.73-36.48 25.86-37.66 24.99-38.84 22.92-38.84L22.92-38.84 11.15-38.84 11.15-2.24Q11.15 0.45 7.79 0.45L7.79 0.45Q4.54 0.45 4.54-2.24L4.54-2.24 4.54-41.13Q4.54-43.15 5.55-43.82 6.56-44.5 8.01-44.5L8.01-44.5 24.38-44.5Q25.78-44.5 27.35-43.88 28.92-43.26 30.37-42.31L30.37-42.31 30.32-42.31Q31.77-41.25 32.56-39.54 33.34-37.83 33.34-35.59L33.34-35.59 33.34-25.44Q33.34-20.9 30.32-18.66L30.32-18.66Q28.86-17.6 27.35-17.04 25.83-16.48 24.38-16.48L24.38-16.48ZM72.07-42.09L72.07-8.97Q72.07-4.43 69.04-2.19L69.04-2.19Q67.58-1.12 66.04-0.53 64.5 0.06 63.04 0.06L63.04 0.06 50.83 0.06Q49.37 0.06 47.83-0.53 46.29-1.12 44.83-2.19L44.83-2.19Q43.37-3.31 42.59-4.96 41.81-6.61 41.81-8.97L41.81-8.97 41.81-42.09Q41.81-44.78 45.11-44.78L45.11-44.78Q48.47-44.78 48.47-42.09L48.47-42.09 48.47-9.41Q48.47-7.96 49.32-6.78 50.16-5.6 52.23-5.6L52.23-5.6 61.64-5.6Q63.72-5.6 64.56-6.78 65.4-7.96 65.4-9.41L65.4-9.41 65.4-42.09Q65.4-44.78 68.7-44.78L68.7-44.78Q72.07-44.78 72.07-42.09L72.07-42.09ZM105.97 0.06L84.17 0.06Q82.1 0.06 81.37-1.01 80.64-2.07 80.64-3.36L80.64-3.36 80.64-42.09Q80.64-44.78 83.89-44.78L83.89-44.78Q87.25-44.78 87.25-42.09L87.25-42.09 87.25-5.6 105.97-5.6Q107.99-5.6 107.99-2.86L107.99-2.86Q108.1 0.06 105.97 0.06L105.97 0.06ZM123.57-25.61L134.38-25.61Q135.84-25.61 137.41-24.99 138.98-24.38 140.44-23.37L140.44-23.37 140.38-23.37Q141.84-22.36 142.62-20.62 143.41-18.89 143.41-16.64L143.41-16.64 143.41-8.97Q143.41-4.43 140.38-2.19L140.38-2.19Q138.92-1.12 137.38-0.53 135.84 0.06 134.38 0.06L134.38 0.06 122.17 0.06Q120.71 0.06 119.17-0.53 117.63-1.12 116.17-2.19L116.17-2.19Q113.14-4.43 113.14-8.97L113.14-8.97 113.14-12.67Q113.14-15.3 116.45-15.3L116.45-15.3Q119.81-15.3 119.81-12.67L119.81-12.67 119.81-9.41Q119.81-7.96 120.65-6.78 121.49-5.6 123.57-5.6L123.57-5.6 132.98-5.6Q135.06-5.6 135.9-6.78 136.74-7.96 136.74-9.41L136.74-9.41 136.74-16.2Q136.74-17.6 135.9-18.8 135.06-20.01 132.98-20.01L132.98-20.01 122.17-20.01Q119.25-20.01 116.17-22.14L116.17-22.14Q113.14-24.49 113.14-28.92L113.14-28.92 113.14-35.59Q113.14-37.83 113.93-39.54 114.71-41.25 116.17-42.31L116.17-42.31 116.11-42.31Q117.57-43.26 119.14-43.88 120.71-44.5 122.17-44.5L122.17-44.5 134.38-44.5Q135.84-44.5 137.41-43.88 138.98-43.26 140.44-42.31L140.44-42.31 140.38-42.31Q141.84-41.25 142.62-39.54 143.41-37.83 143.41-35.59L143.41-35.59 143.41-32.28Q143.41-29.65 140.04-29.65L140.04-29.65Q136.74-29.65 136.74-32.28L136.74-32.28 136.74-35.08Q136.74-36.48 135.9-37.66 135.06-38.84 132.98-38.84L132.98-38.84 123.57-38.84Q121.49-38.84 120.65-37.66 119.81-36.48 119.81-35.08L119.81-35.08 119.81-29.36Q119.81-27.91 120.65-26.76 121.49-25.61 123.57-25.61L123.57-25.61ZM176.3 0.06L155.79 0.06Q153.72 0.06 152.99-1.01 152.26-2.07 152.26-3.36L152.26-3.36 152.26-41.13Q152.26-42.42 152.99-43.46 153.72-44.5 155.79-44.5L155.79-44.5 175.29-44.5Q177.37-44.5 177.48-41.69L177.48-41.69Q177.59-38.84 175.29-38.84L175.29-38.84 158.87-38.84 158.87-5.6 176.3-5.6Q178.37-5.6 178.43-2.86L178.43-2.86Q178.54 0.06 176.3 0.06L176.3 0.06ZM173.22-23.14L173.22-23.14Q173.22-21.18 171.85-19.84 170.47-18.49 168.51-18.49L168.51-18.49Q166.61-18.49 165.26-19.84 163.92-21.18 163.92-23.14L163.92-23.14Q163.92-25.11 165.26-26.45 166.61-27.8 168.51-27.8L168.51-27.8Q170.47-27.8 171.85-26.45 173.22-25.11 173.22-23.14Z" transform="translate(-4.539999961853027, 44.779998779296875)"></path></g></g></g></g> <!----></g><defs v-gra="od"></defs></svg>